<svg width="59" height="59" viewBox="0 0 59 59" fill="none" xmlns="http://www.w3.org/2000/svg">
<g filter="url(#filter0_d)">
<circle cx="29.2182" cy="27.2182" r="13" transform="rotate(0.97008 29.2182 27.2182)" fill="#06C575"/>
<path d="M26.4991 23.0024C26.5287 21.2511 27.6708 20.1001 29.3303 20.1282C30.9897 20.1563 32.0922 21.3453 32.0626 23.0966C32.0329 24.848 30.8828 25.9988 29.2314 25.9709C27.5719 25.9428 26.4694 24.7538 26.4991 23.0024ZM35.0812 29.522C35.0775 28.3148 34.3379 27.4779 33.2169 27.3853L31.1909 27.2185L29.1882 28.9953L27.2387 27.1516L25.2083 27.2497C24.0847 27.3043 23.3173 28.1083 23.2727 29.3221C23.2656 29.7415 23.2261 32.0741 23.19 34.2081L35.0064 34.4082C35.0346 32.2741 35.0741 29.9415 35.0812 29.522Z" fill="white"/>
</g>
<defs>
<filter id="filter0_d" x="0" y="0" width="58.4365" height="58.4365" filterUnits="userSpaceOnUse" color-interpolation-filters="sRGB">
<feFlood flood-opacity="0" result="BackgroundImageFix"/>
<feColorMatrix in="SourceAlpha" type="matrix" values="0 0 0 0 0 0 0 0 0 0 0 0 0 0 0 0 0 0 127 0"/>
<feOffset dy="2"/>
<feGaussianBlur stdDeviation="8"/>
<feColorMatrix type="matrix" values="0 0 0 0 0.058008 0 0 0 0 0.510917 0 0 0 0 0.130473 0 0 0 0.75 0"/>
<feBlend mode="normal" in2="BackgroundImageFix" result="effect1_dropShadow"/>
<feBlend mode="normal" in="SourceGraphic" in2="effect1_dropShadow" result="shape"/>
</filter>
</defs>
</svg>
